<svg width="329" height="329" viewBox="0 0 329 329" fill="none" xmlns="http://www.w3.org/2000/svg">
<g clip-path="url(#clip0)">
<path d="M194.641 164.769L322.748 36.6594C331.084 28.3263 331.084 14.853 322.748 6.51997C314.415 -1.81305 300.941 -1.81305 292.608 6.51997L164.498 134.63L36.3921 6.51997C28.0552 -1.81305 14.5857 -1.81305 6.25269 6.51997C-2.08423 14.853 -2.08423 28.3263 6.25269 36.6594L134.359 164.769L6.25269 292.879C-2.08423 301.212 -2.08423 314.686 6.25269 323.019C10.4055 327.175 15.8659 329.264 21.3224 329.264C26.7789 329.264 32.2353 327.175 36.3921 323.019L164.498 194.909L292.608 323.019C296.765 327.175 302.221 329.264 307.678 329.264C313.134 329.264 318.591 327.175 322.748 323.019C331.084 314.686 331.084 301.212 322.748 292.879L194.641 164.769Z" fill="#efefef"/>
</g>
<defs>
<clipPath id="clip0">
<rect width="329" height="329" fill="white"/>
</clipPath>
</defs>
</svg>
