<svg fill="none" xmlns="http://www.w3.org/2000/svg" viewBox="0 0 35 28">
  <path d="M3.36 8.477c.442.312 1.777 1.24 4.003 2.783a975.721 975.721 0 015.117 3.564c.13.091.407.29.83.596s.775.553 1.055.742c.28.189.618.4 1.016.635.397.234.771.41 1.123.526.351.118.677.176.976.176h.04c.3 0 .625-.058.976-.176a5.9 5.9 0 001.123-.526c.397-.235.736-.446 1.016-.635s.631-.436 1.055-.742c.423-.307.7-.505.83-.596 1.197-.833 4.245-2.95 9.14-6.348a9.278 9.278 0 002.383-2.402c.638-.937.957-1.92.957-2.949 0-.86-.31-1.595-.928-2.207C33.453.306 32.721 0 31.875 0H3.125C2.122 0 1.35.338.81 1.015.27 1.693 0 2.54 0 3.555c0 .82.358 1.709 1.074 2.666.716.957 1.478 1.709 2.285 2.256z" fill="#38177D"/>
  <path d="M33.047 10.566c-4.27 2.89-7.513 5.137-9.727 6.739-.742.546-1.344.973-1.806 1.279-.463.306-1.078.618-1.846.937-.768.32-1.484.479-2.148.479h-.04c-.664 0-1.38-.16-2.148-.479-.768-.319-1.383-.631-1.846-.937a46.3 46.3 0 01-1.806-1.28c-1.758-1.288-4.994-3.535-9.707-6.738A10.344 10.344 0 010 8.867v15.507c0 .86.306 1.596.918 2.208a3.009 3.009 0 002.207.918h28.75c.86 0 1.595-.306 2.207-.918A3.008 3.008 0 0035 24.374V8.867c-.56.625-1.21 1.191-1.953 1.7z" fill="#38177D"/>
</svg>
