<svg xmlns="http://www.w3.org/2000/svg" viewBox="0 0 35 35">
  <path d="M32.653 9.222a17.424 17.424 0 00-6.37-6.369C23.604 1.288 20.676.506 17.5.506s-6.103.782-8.784 2.347a17.422 17.422 0 00-6.369 6.369C.782 11.903 0 14.83 0 18.005c0 3.814 1.113 7.243 3.338 10.288 2.226 3.046 5.1 5.154 8.625 6.323.41.076.714.023.91-.159a.89.89 0 00.297-.683l-.011-1.23c-.008-.776-.012-1.452-.012-2.028l-.524.09a6.69 6.69 0 01-1.265.08 9.638 9.638 0 01-1.583-.16 3.54 3.54 0 01-1.527-.683 2.891 2.891 0 01-1.002-1.4l-.228-.525c-.152-.35-.391-.737-.718-1.162-.327-.425-.657-.714-.991-.866l-.16-.114a1.674 1.674 0 01-.296-.274 1.249 1.249 0 01-.205-.319c-.045-.106-.007-.194.114-.262.122-.069.342-.102.661-.102l.456.068c.303.061.68.243 1.128.547.448.304.816.699 1.105 1.184.35.623.77 1.098 1.264 1.425.494.326.991.49 1.493.49.5 0 .934-.039 1.298-.114.365-.076.707-.19 1.026-.342.136-1.018.509-1.8 1.116-2.347a15.606 15.606 0 01-2.335-.41 9.304 9.304 0 01-2.142-.89 6.135 6.135 0 01-1.835-1.526c-.486-.608-.884-1.405-1.196-2.392-.311-.988-.467-2.127-.467-3.418 0-1.839.6-3.403 1.8-4.695-.562-1.382-.509-2.931.16-4.648.44-.137 1.094-.034 1.96.308.866.342 1.5.634 1.902.877.403.243.726.449.969.615A16.18 16.18 0 0117.5 8.96c1.503 0 2.962.198 4.375.592l.866-.546a12.26 12.26 0 012.096-1.003c.805-.304 1.42-.387 1.846-.25.683 1.716.744 3.266.182 4.648 1.2 1.291 1.8 2.856 1.8 4.694 0 1.29-.156 2.434-.467 3.429-.31.995-.713 1.792-1.207 2.393a6.371 6.371 0 01-1.846 1.515 9.316 9.316 0 01-2.142.889c-.691.182-1.47.319-2.335.41.79.683 1.184 1.762 1.184 3.236v4.807c0 .273.095.501.285.683.19.182.49.236.9.16 3.525-1.17 6.4-3.277 8.625-6.323C33.887 25.247 35 21.818 35 18.005c0-3.174-.784-6.102-2.347-8.783z"/>
</svg>
